<svg width="150" height="150" viewBox="0 0 150 150" fill="none" xmlns="http://www.w3.org/2000/svg">
  <rect width="150" height="150" fill="none" />
  <path fill-rule="evenodd" clip-rule="evenodd"
    d="M49.0879 99.204L36.3074 94.4624L35.0535 97.8049L47.9506 102.59L49.0879 99.204ZM37.9886 89.9811L45.7509 69.2899L57.6429 73.7018L54.3985 83.3954H71.4326L62.8687 58.0882L62.1361 60.2772L50.7208 56.0422L53.9302 47.4875C55.3941 43.5851 59.125 41 63.293 41H63.5H69.3735H93.0944C98.2108 41 102.703 41.9287 106.572 43.7861C110.472 45.6435 113.467 48.2903 115.557 51.7265C117.647 55.1318 118.692 59.0169 118.692 63.3818C118.692 70.0066 116.399 75.2383 111.813 79.0769C107.258 82.8846 100.941 84.7885 92.8604 84.7885H85.8918L89.8044 95.1606C92.2633 101.679 87.4704 108.651 80.5038 108.69L80.0848 108.692L75.2231 94.6792H50.6519L37.9886 89.9811ZM49.0397 60.5235L47.4321 64.8086L59.1628 69.1607L60.6162 64.8183L49.0397 60.5235ZM33.3723 102.286L46.4257 107.129L45.9282 108.61H31L33.3723 102.286ZM73.6301 52.2838L81.6352 73.5047H93.0944C96.8069 73.5047 99.6303 72.6379 101.565 70.9043C103.53 69.1707 104.513 66.6942 104.513 63.4747C104.513 60.1623 103.53 57.4845 101.565 55.4414C99.5992 53.3982 96.8849 52.3457 93.4219 52.2838H73.6301Z"
    fill="black" />
</svg>